# AST/ASF file generated using VICON BodyLanguage
# -----------------------------------------------
:version 1.10
:name VICON
:units
  mass 1.0
  length 0.45
  angle deg
:documentation
   .ast/.asf automatically generated from VICON data using
   VICON BodyBuilder and BodyLanguage model FoxedUp or BRILLIANT.MOD
:root
   order TX TY TZ RX RY RZ
   axis XYZ
   position 0 0 0  
   orientation 0 0 0 
:bonedata
  begin
     id 1 
     name lhipjoint
     direction 0.707368 -0.647095 0.284426 
     length 2.60678 
     axis 0 0 0  XYZ
  end
  begin
     id 2 
     name lfemur
     direction 0.34202 -0.939693 0  
     length 6.63812  
     axis 0 0 20  XYZ
    dof rx ry rz
    limits (-160.0 20.0)
           (-70.0 70.0)
           (-60.0 70.0)
  end
  begin
     id 3 
     name ltibia
     direction 0.34202 -0.939693 0   
     length 7.51178   
     axis 0 0 20   XYZ
    dof rx
    limits (-10.0 170.0)
  end
  begin
     id 4 
     name lfoot
     direction 0.121251 -0.333133 0.935051   
     length 1.83716   
     axis -90 7.62852e-016 20   XYZ
    dof rx rz
    limits (-45.0 90.0)
           (-70.0 20.0)
  end
  begin
     id 5 
     name ltoes
     direction 1.53611e-011 -4.21962e-011 1   
     length 0.916133   
     axis -90 7.62852e-016 20   XYZ
    dof rx
    limits (-90.0 20.0)
  end
  begin
     id 6 
     name rhipjoint
     direction -0.692419 -0.660507 0.290321   
     length 2.55385  
     axis 0 0 0  XYZ 
  end
  begin
     id 7 
     name rfemur
     direction -0.34202 -0.939693 0   
     length 7.29079   
     axis 0 0 -20   XYZ
    dof rx ry rz
    limits (-160.0 20.0)
           (-70.0 70.0)
           (-70.0 60.0)
  end
  begin
     id 8 
     name rtibia
     direction -0.34202 -0.939693 0   
     length 7.47143   
     axis 0 0 -20   XYZ
    dof rx
    limits (-10.0 170.0)
 end
 begin
     id 9 
     name rfoot
     direction -0.119907 -0.329441 0.936532   
     length 1.79439  
     axis -90 -7.62852e-016 -20   XYZ
    dof rx rz
    limits (-45.0 90.0)
           (-20.0 70.0)
  end
  begin
     id 10 
     name rtoes
     direction -1.53571e-011 -4.21961e-011 1   
     length 0.896039   
     axis -90 -7.62852e-016 -20   XYZ
    dof rx
    limits (-90.0 20.0)
  end
  begin
     id 11 
     name lowerback
     direction 0.0367721 0.992912 -0.113016   
     length 1.73542   
     axis 0 0 0   XYZ
    dof rx ry rz
    limits (-20.0 45.0)
           (-30.0 30.0)
           (-30.0 30.0)
  end
  begin
     id 12 
     name upperback
     direction -0.000314626 0.990678 0.136227   
     length 1.7514   
     axis 0 0 0   XYZ
    dof rx ry rz
    limits (-20.0 45.0)
           (-30.0 30.0)
           (-30.0 30.0)
  end
  begin
     id 13 
     name thorax
     direction -0.0226159 0.981151 0.191917   
     length 1.71471   
     axis 0 0 0   XYZ
    dof rx ry rz
    limits (-20.0 45.0)
           (-30.0 30.0)
           (-30.0 30.0)
  end
  begin
     id 14 
     name lowerneck
     direction 0.0219333 0.998071 0.0580739   
     length 1.65882   
     axis 0 0 0   XYZ
    dof rx ry rz
    limits (-20.0 45.0)
           (-30.0 30.0)
           (-30.0 30.0)
  end
  begin
     id 15 
     name upperneck
     direction 0.0384529 0.980058 -0.194957   
     length 1.6612   
     axis 0 0 0   XYZ
    dof rx ry rz
    limits (-20.0 45.0)
           (-30.0 30.0)
           (-30.0 30.0)
  end
  begin
     id 16
     name head
     direction 0.00592123 0.997421 -0.0715234  
     length 1.68077  
     axis 0 0 0   XYZ
    dof rx ry rz
    limits (-20.0 45.0)
           (-30.0 30.0)
           (-30.0 30.0)
  end
  begin
     id 17 
     name lclavicle
     direction 0.904803 0.417826 0.0821728  
     length 3.42227  
     axis 0 0 0   XYZ
    dof ry rz
    limits (-20.0 10.0)
           (0.0 20.0)
  end
  begin
     id 18 
     name lhumerus
     direction 1 -4.48965e-011 -2.68786e-027   
     length 5.11878   
     axis -180 -30 -90   XYZ
    dof rx ry rz
    limits (-60.0 90.0)
           (-90.0 90.0)
           (-90.0 90.0)
  end
  begin
     id 19
     name lradius
     direction 1 -4.48965e-011 2.61168e-028   
     length 3.59971   
     axis -180 -30 -90   XYZ
    dof rx
    limits (-10.0 170.0)
  end
  begin
     id 20
     name lwrist
     direction 1 -4.48965e-011 1.58672e-027   
     length 1.79985   
     axis -1.65735e-015 90 90   XYZ
    dof ry
    limits (-180.0 0.0)
 end
  begin
     id 21 
     name lhand
     direction 1 -4.48942e-011 3.17344e-027   
     length 0.62877   
     axis -2.02492e-015 90 90   XYZ
    dof rx rz
    limits (-90.0 90.0)
           (-45.0 45.0)
  end
  begin
     id 22 
     name lfingers
     direction 1 -4.49011e-011 6.34687e-027   
     length 0.506931   
     axis -4.04985e-015 90 90   XYZ
    dof rx
    limits (0.0 90.0)
  end
  begin
     id 23
     name lthumb
     direction 0.707107 -6.34982e-011 0.707107   
     length 0.727854   
     axis -90 45 2.85299e-015   XYZ
    dof rx rz
    limits (-45.0 45.0)
           (-45.0 45.0)
  end
  begin
     id 24 
     name rclavicle
     direction -0.945647 0.32488 0.0143075   
     length 3.52737  
     axis 0 0 0   XYZ 
    dof ry rz
    limits (-10.0 20.0)
           (-20.0 0.0)
  end
  begin
     id 25 
     name rhumerus
     direction -1 -4.48962e-011 1.92182e-027  
     length 5.4902   
     axis -180 30 90   XYZ
    dof rx ry rz
    limits (-90.0 60.0)
           (-90.0 90.0)
           (-90.0 90.0)
  end
  begin
     id 26 
     name rradius
     direction -1 -4.48967e-011 -5.97193e-028   
     length 3.20659   
     axis -180 30 90   XYZ
    dof rx
    limits (-10.0 170.0)
  end
  begin
     id 27 
     name rwrist
     direction -1 -4.48964e-011 1.58672e-027   
     length 1.6033   
     axis -1.65735e-015 -90 -90   XYZ
    dof ry
    limits (-180.0 0.0)
  end
  begin
     id 28
     name rhand
     direction -1 -4.49006e-011 3.17344e-027   
     length 0.691885   
     axis -2.02492e-015 -90 -90   XYZ
    dof rx rz
    limits (-90.0 90.0)
           (-45.0 45.0)
  end
  begin
     id 29
     name rfingers
     direction -1 -4.48908e-011 6.34687e-027   
     length 0.557815   
     axis -4.04985e-015 -90 -90   XYZ
    dof rx
    limits (0.0 90.0)
  end
  begin
     id 30
     name rthumb
     direction -0.707107 -6.34999e-011 0.707107   
     length 0.800915   
     axis -90 -45 -2.85299e-015   XYZ
    dof rx rz
    limits (-45.0 45.0)
           (-45.0 45.0)
  end
:hierarchy
  begin
    root lhipjoint rhipjoint lowerback
    lhipjoint lfemur
    lfemur ltibia
    ltibia lfoot
    lfoot ltoes
    rhipjoint rfemur
    rfemur rtibia
    rtibia rfoot
    rfoot rtoes
    lowerback upperback
    upperback thorax
    thorax lowerneck lclavicle rclavicle
    lowerneck upperneck
    upperneck head
    lclavicle lhumerus
    lhumerus lradius
    lradius lwrist
    lwrist lhand lthumb
    lhand lfingers
    rclavicle rhumerus
    rhumerus rradius
    rradius rwrist
    rwrist rhand rthumb
    rhand rfingers
  end

#!OML:ASF I:\Actors\actors\Patient Classification 1\Patient 1\Session 1\Subject1.ASF
:FULLY-SPECIFIED
:DEGREES
64
root 0.653607 17.4283 9.41734 9.74411 0.764906 -9.4752
lowerback -2.14071 -0.058174 5.59362
upperback -9.83075 0.296243 2.70596
thorax -9.19635 -0.173148 -0.262595
lowerneck -2.11336 -10.927 -8.47286
upperneck 15.0719 -15.8832 9.72196
head 6.37647 -7.65081 3.28924
rclavicle -5.86415e-015 4.9895e-014
rhumerus -45.2275 -15.0113 -77.5533
rradius 24.4196
rwrist 38.0966
rhand 10.0405 -33.0105
rfingers 7.12502
rthumb 35.1648 -59.5279
lclavicle -5.86415e-015 4.9895e-014
lhumerus -50.0757 16.6814 77.1232
lradius 26.4959
lwrist 0.443412
lhand -18.5507 -3.46393
lfingers 7.12502
lthumb 7.73886 26.3745
rfemur -4.34314 24.2997 26.3313
rtibia 2.77058
rfoot -12.546 -26.196
rtoes 5.20717
lfemur 4.91746 -44.9389 -11.111
ltibia -4.96531
lfoot -18.2927 51.2118
ltoes 7.24844
65
root 0.653391 17.428 9.41827 9.79047 0.78428 -9.49912
lowerback -2.17282 -0.0482007 5.62159
upperback -9.83174 0.308564 2.71248
thorax -9.17839 -0.168633 -0.272049
lowerneck -2.06706 -10.9106 -8.562
upperneck 15.0369 -15.875 9.84855
head 6.3742 -7.64601 3.34561
rclavicle 2.38542e-015 1.63003e-014
rhumerus -45.2102 -15.0404 -77.523
rradius 24.4391
rwrist 38.1423
rhand 10.1413 -32.963
rfingers 7.12502
rthumb 35.2603 -59.4579
lclavicle 2.38542e-015 1.63003e-014
lhumerus -49.9854 16.334 77.5751
lradius 26.8975
lwrist 1.22492
lhand -18.7972 -1.52762
lfingers 7.12502
lthumb 7.50086 28.3194
rfemur -4.39665 24.2613 26.3447
rtibia 2.77536
rfoot -12.4598 -26.1953
rtoes 4.90467
lfemur 4.86947 -45.0562 -11.0516
ltibia -4.9637
lfoot -18.4073 51.2963
ltoes 7.37798
66
root 0.652767 17.4278 9.41899 9.81056 0.79128 -9.50804
lowerback -2.16908 -0.0361918 5.62306
upperback -9.82903 0.325452 2.71816
thorax -9.17682 -0.160028 -0.26785
lowerneck -2.05474 -10.9092 -8.68394
upperneck 15.0198 -15.8921 10.0143
head 6.39188 -7.6511 3.41392
rclavicle 1.09332e-015 7.55382e-015
rhumerus -45.1914 -14.9918 -77.5294
rradius 24.4619
rwrist 38.1075
rhand 10.1861 -32.9091
rfingers 7.12502
rthumb 35.3028 -59.3939
lclavicle 1.09332e-015 7.55382e-015
lhumerus -49.9569 16.1695 77.7682
lradius 27.055
lwrist 1.52741
lhand -18.8523 -0.939395
lfingers 7.12502
lthumb 7.44776 28.9095
rfemur -4.40774 24.2323 26.3553
rtibia 2.76342
rfoot -12.4258 -26.202
rtoes 4.79556
lfemur 4.81824 -45.0001 -10.9897
ltibia -4.97391
lfoot -18.3398 51.2509
ltoes 7.29702
67
root 0.652381 17.4273 9.42081 9.80866 0.794198 -9.48647
lowerback -2.16792 -0.0377035 5.58368
upperback -9.80685 0.321135 2.7193
thorax -9.15213 -0.15817 -0.245084
lowerneck -2.0925 -10.9104 -8.73281
upperneck 14.9951 -15.9061 10.1352
head 6.40582 -7.65192 3.45512
rclavicle -1.35671e-014 3.91606e-014
rhumerus -45.1133 -14.8639 -77.6126
rradius 24.4507
rwrist 37.9923
rhand 10.1037 -32.8604
rfingers 7.12502
rthumb 35.2247 -59.3637
lclavicle -1.35671e-014 3.91606e-014
lhumerus -49.9377 16.0599 77.8668
lradius 27.1301
lwrist 1.68526
lhand -18.8795 -0.858524
lfingers 7.12502
lthumb 7.42143 28.9913
rfemur -4.38056 24.2598 26.3434
rtibia 2.74933
rfoot -12.4721 -26.2401
rtoes 4.8974
lfemur 4.74789 -44.6726 -10.9313
ltibia -4.99449
lfoot -18.0196 50.9741
ltoes 6.96439
68
root 0.652635 17.4267 9.42324 9.80572 0.793767 -9.43566
lowerback -2.1837 -0.0519763 5.52377
upperback -9.76441 0.295786 2.71179
thorax -9.09521 -0.164686 -0.219463
lowerneck -2.20944 -10.9188 -8.63086
upperneck 14.9759 -15.9016 10.0586
head 6.4048 -7.645 3.41015
rclavicle -1.44616e-014 1.37161e-014
rhumerus -44.9863 -14.7822 -77.7041
rradius 24.454
rwrist 37.8763
rhand 10.0624 -32.867
rfingers 7.12502
rthumb 35.1855 -59.3796
lclavicle -1.44616e-014 1.37161e-014
lhumerus -49.8796 16.0153 77.9245
lradius 27.1749
lwrist 1.77428
lhand -18.8873 -0.810425
lfingers 7.12502
lthumb 7.41395 29.0397
rfemur -4.35412 24.3651 26.2894
rtibia 2.73406
rfoot -12.581 -26.3132
rtoes 5.24555
lfemur 4.72862 -44.5048 -10.9645
ltibia -5.00794
lfoot -17.8308 50.8346
ltoes 6.63388
69
root 0.652816 17.4272 9.42519 9.81406 0.807927 -9.39313
lowerback -2.18604 -0.0654804 5.48397
upperback -9.73886 0.274625 2.70985
thorax -9.06544 -0.171192 -0.198844
lowerneck -2.30684 -10.9293 -8.59765
upperneck 14.9461 -15.8989 10.0029
head 6.40461 -7.64225 3.38282
rclavicle -6.75868e-015 -3.57812e-015
rhumerus -44.9015 -14.7715 -77.7248
rradius 24.5021
rwrist 37.7566
rhand 10.1671 -32.9097
rfingers 7.12502
rthumb 35.2848 -59.3988
lclavicle -6.75868e-015 -3.57812e-015
lhumerus -49.856 16.0124 77.9617
lradius 27.205
lwrist 1.78994
lhand -18.8492 -0.911698
lfingers 7.12502
lthumb 7.45073 28.9371
rfemur -4.3414 24.4712 26.2362
rtibia 2.704
rfoot -12.6769 -26.3802
rtoes 5.57093
lfemur 4.76042 -44.7122 -11.0579
ltibia -4.98926
lfoot -17.975 50.9996
ltoes 6.6875
